<?xml version="1.0" encoding="UTF-8"?>
<svg id="_레이어_1" xmlns="http://www.w3.org/2000/svg" version="1.1" viewBox="0 0 67.2 21.8">
  <!-- Generator: Adobe Illustrator 30.4.0, SVG Export Plug-In . SVG Version: 2.1.4 Build 226)  -->
  <path d="M2.2,17.6c-.4-4.2-.4-9,0-13.3.1-1.7,1.1-3,3-3s2.8,1.3,3,3c.4,4.2.4,8.9,0,13.3-.1,1.7-1.1,3-3,3s-2.8-1.3-3-3Z"/>
  <path d="M16.8,13.4c0,1.6-.1,2.7-.3,4.2-.1,1.7-1.1,3-3,3s-2.8-1.3-3-3c-.4-4.2-.4-9,0-13.3.1-1.7,1.1-3,3-3s1.8.4,2.4,1.1c1.3,1.8,2.5,4.7,3.7,7.1.1.3.4.3.6,0,1-2.4,2.3-5.1,3.7-7.1.4-.7,1.3-1.1,2.4-1.1,2,0,2.8,1.3,3,3,.4,4.2.4,8.9,0,13.3-.1,1.7-1.1,3-3,3s-2.8-1.3-3-3c-.1-1.6-.3-2.7-.3-4.2.6-1.1.8-1.8,1.1-3,0-.6-.4-.6-.6-.1-.6,1.6-1.4,3.4-2.1,4.8-.6,1.1-2.1,1.1-2.8,0-.8-1.4-1.7-3.2-2.1-4.8,0-.4-.7-.3-.6.1.3,1,.6,1.8,1.1,3h-.3Z"/>
  <path d="M37.7,11.1c0,2-.1,4.7-.4,6.5-.1,1.7-1.1,3-3,3s-2.8-1.3-3-3c-.4-4.2-.4-9,0-13.3.1-1.7,1.1-3,3-3s1.8.4,2.4,1.1c2,2.5,3.1,6.1,4.8,8.9.1.4.6.1.4-.3-.4-1-.8-1.6-1.3-2.5,0-1.6.1-3.1.3-4.4.3-1.7,1.1-3,3-3s2.8,1.3,3,3c.4,4.2.4,8.9,0,13.3-.3,1.7-1.1,3-3,3s-2.1-.7-2.5-1.6c-1.1-2.1-2.3-5.6-3.7-7.9h0Z"/>
  <path d="M65.4,15.5c0,3.2-2.4,4.8-5.9,5.2h-2.8c-1,0-2.7,0-3.8-.1-1.7-.1-3.4-1.6-3.5-3.9-.3-3.9-.1-7.5,0-11.4,0-2.4,1.8-3.7,3.5-3.9,1.1,0,2.5-.1,3.8-.1h2.8c3.7.4,5.6,1.4,5.6,5.2s-1,4.1-4.2,4.1-.4.7,0,.7,1.6,0,2.3-.4c1.6.6,2.3,2,2.3,4.7h0ZM58,8.2c.6,0,.4-.8,0-.8-1.1,0-2,0-2.8-.6-.4-.1-.7.6-.1.7,1,.6,2,.7,3,.6h0ZM58,14.8c.6,0,.4-.8,0-.8-1.1,0-2,0-2.8-.6-.4-.1-.7.6-.1.8,1,.6,2,.7,3,.6Z"/>
</svg>