<?xml version="1.0" encoding="UTF-8"?>
<svg id="_레이어_1" data-name="레이어_1" xmlns="http://www.w3.org/2000/svg" version="1.1" viewBox="0 0 47 15">
  <!-- Generator: Adobe Illustrator 30.4.0, SVG Export Plug-In . SVG Version: 2.1.4 Build 226)  -->
  <path d="M1.2,12.2c-.3-3-.3-6.4,0-9.4.1-1.2.8-2.1,2.1-2.1s2,.9,2.1,2.1c.3,3,.3,6.3,0,9.4-.1,1.2-.8,2.1-2.1,2.1s-2-.9-2.1-2.1Z"/>
  <path d="M11.6,9.2c0,1.1-.1,1.9-.2,3-.1,1.2-.8,2.1-2.1,2.1s-2-.9-2.1-2.1c-.3-3-.3-6.4,0-9.4.1-1.2.8-2.1,2.1-2.1s1.3.3,1.7.8c.9,1.3,1.8,3.3,2.6,5,.1.2.3.2.4,0,.7-1.7,1.6-3.6,2.6-5,.3-.5.9-.8,1.7-.8,1.4,0,2,.9,2.1,2.1.3,3,.3,6.3,0,9.4-.1,1.2-.8,2.1-2.1,2.1s-2-.9-2.1-2.1c-.1-1.1-.2-1.9-.2-3,.4-.8.6-1.3.8-2.1,0-.4-.3-.4-.4-.1-.4,1.1-1,2.4-1.5,3.4-.4.8-1.5.8-2,0-.6-1-1.2-2.3-1.5-3.4,0-.3-.5-.2-.4.1.2.7.4,1.3.8,2.1Z"/>
  <path d="M26.4,7.6c0,1.4-.1,3.3-.3,4.6-.1,1.2-.8,2.1-2.1,2.1s-2-.9-2.1-2.1c-.3-3-.3-6.4,0-9.4.1-1.2.8-2.1,2.1-2.1s1.3.3,1.7.8c1.4,1.8,2.2,4.3,3.4,6.3.1.3.4.1.3-.2-.3-.7-.6-1.1-.9-1.8,0-1.1.1-2.2.2-3.1.2-1.2.8-2.1,2.1-2.1s2,.9,2.1,2.1c.3,3,.3,6.3,0,9.4-.2,1.2-.8,2.1-2.1,2.1s-1.5-.5-1.8-1.1c-.8-1.5-1.6-4-2.6-5.6Z"/>
  <path d="M46,10.7c0,2.3-1.7,3.4-4.2,3.7-.6,0-1.3,0-2,0s-1.9,0-2.7-.1c-1.2-.1-2.4-1.1-2.5-2.8-.2-2.8-.1-5.3,0-8.1,0-1.7,1.3-2.6,2.5-2.8.8,0,1.8-.1,2.7-.1.7,0,1.4,0,2,0,2.6.3,4,1,4,3.7s-.7,2.9-3,2.9-.3.5,0,.5c.4,0,1.1,0,1.6-.3,1.1.4,1.6,1.4,1.6,3.3ZM40.8,5.5c.4,0,.3-.6,0-.6-.8,0-1.4,0-2-.4-.3-.1-.5.4-.1.5.7.4,1.4.5,2.1.4ZM40.8,10.2c.4,0,.3-.6,0-.6-.8,0-1.4,0-2-.4-.3-.1-.5.4-.1.6.7.4,1.4.5,2.1.4Z"/>
</svg>